<?xml version="1.0" encoding="UTF-8" standalone="no"?>
<!-- Created with PhysiCell (http://PhysiCell.MathCancer.org/) -->
<svg 
 xmlns:dc="http://purl.org/dc/elements/1.1/" 
 xmlns:cc="http://creativecommons.org/ns#" 
 xmlns:rdf="http://www.w3.org/1999/02/22-rdf-syntax-ns#" 
 xmlns:svg="http://www.w3.org/2000/svg" 
 xmlns="http://www.w3.org/2000/svg" 
 version="1.1" 
 width="1000" 
 height="1070" 
 id="svg2">
  <rect x="0" y="0" width="1000" height="1070" stroke-width="2" stroke="white" fill="white"/>
  <text x="12.5" y="30"
   font-family="Arial" font-size="25" fill="black" >
   Current time: 0 days, 0 hours, and 0.00 minutes, z = 0.00 &#956;m
  </text>
  <text x="12.5" y="57.5"
   font-family="Arial" font-size="23.75" fill="black" >
   176 agents
  </text>
 <g id="tissue" 
    transform="translate(0,1070) scale(1,-1)">
  <g id="ECM">
  </g>
  <g id="cells">
   <g id="cell0">
  <circle cx="407.99" cy="462.5" r="7.5" stroke-width="0.5" stroke="rgb(0,0,0)" fill="rgb(0,255,0)"/>
  <circle cx="407.99" cy="462.5" r="4.503" stroke-width="0.5" stroke="rgb(0,0,0)" fill="rgb(0,125,0)"/>
   </g>
   <g id="cell1">
  <circle cx="407.99" cy="477.5" r="7.5" stroke-width="0.5" stroke="rgb(0,0,0)" fill="rgb(0,255,0)"/>
  <circle cx="407.99" cy="477.5" r="4.503" stroke-width="0.5" stroke="rgb(0,0,0)" fill="rgb(0,125,0)"/>
   </g>
   <g id="cell2">
  <circle cx="407.99" cy="492.5" r="7.5" stroke-width="0.5" stroke="rgb(0,0,0)" fill="rgb(0,255,0)"/>
  <circle cx="407.99" cy="492.5" r="4.503" stroke-width="0.5" stroke="rgb(0,0,0)" fill="rgb(0,125,0)"/>
   </g>
   <g id="cell3">
  <circle cx="407.99" cy="507.5" r="7.5" stroke-width="0.5" stroke="rgb(0,0,0)" fill="rgb(0,255,0)"/>
  <circle cx="407.99" cy="507.5" r="4.503" stroke-width="0.5" stroke="rgb(0,0,0)" fill="rgb(0,125,0)"/>
   </g>
   <g id="cell4">
  <circle cx="407.99" cy="522.5" r="7.5" stroke-width="0.5" stroke="rgb(0,0,0)" fill="rgb(0,255,0)"/>
  <circle cx="407.99" cy="522.5" r="4.503" stroke-width="0.5" stroke="rgb(0,0,0)" fill="rgb(0,125,0)"/>
   </g>
   <g id="cell5">
  <circle cx="407.99" cy="537.5" r="7.5" stroke-width="0.5" stroke="rgb(0,0,0)" fill="rgb(0,255,0)"/>
  <circle cx="407.99" cy="537.5" r="4.503" stroke-width="0.5" stroke="rgb(0,0,0)" fill="rgb(0,125,0)"/>
   </g>
   <g id="cell6">
  <circle cx="420.981" cy="440" r="7.5" stroke-width="0.5" stroke="rgb(0,0,0)" fill="rgb(0,255,0)"/>
  <circle cx="420.981" cy="440" r="4.503" stroke-width="0.5" stroke="rgb(0,0,0)" fill="rgb(0,125,0)"/>
   </g>
   <g id="cell7">
  <circle cx="420.981" cy="455" r="7.5" stroke-width="0.5" stroke="rgb(0,0,0)" fill="rgb(0,255,0)"/>
  <circle cx="420.981" cy="455" r="4.503" stroke-width="0.5" stroke="rgb(0,0,0)" fill="rgb(0,125,0)"/>
   </g>
   <g id="cell8">
  <circle cx="420.981" cy="470" r="7.5" stroke-width="0.5" stroke="rgb(0,0,0)" fill="rgb(0,255,0)"/>
  <circle cx="420.981" cy="470" r="4.503" stroke-width="0.5" stroke="rgb(0,0,0)" fill="rgb(0,125,0)"/>
   </g>
   <g id="cell9">
  <circle cx="420.981" cy="485" r="7.5" stroke-width="0.5" stroke="rgb(0,0,0)" fill="rgb(0,255,0)"/>
  <circle cx="420.981" cy="485" r="4.503" stroke-width="0.5" stroke="rgb(0,0,0)" fill="rgb(0,125,0)"/>
   </g>
   <g id="cell10">
  <circle cx="420.981" cy="500" r="7.5" stroke-width="0.5" stroke="rgb(0,0,0)" fill="rgb(0,255,0)"/>
  <circle cx="420.981" cy="500" r="4.503" stroke-width="0.5" stroke="rgb(0,0,0)" fill="rgb(0,125,0)"/>
   </g>
   <g id="cell11">
  <circle cx="420.981" cy="515" r="7.5" stroke-width="0.5" stroke="rgb(0,0,0)" fill="rgb(0,255,0)"/>
  <circle cx="420.981" cy="515" r="4.503" stroke-width="0.5" stroke="rgb(0,0,0)" fill="rgb(0,125,0)"/>
   </g>
   <g id="cell12">
  <circle cx="420.981" cy="530" r="7.5" stroke-width="0.5" stroke="rgb(0,0,0)" fill="rgb(0,255,0)"/>
  <circle cx="420.981" cy="530" r="4.503" stroke-width="0.5" stroke="rgb(0,0,0)" fill="rgb(0,125,0)"/>
   </g>
   <g id="cell13">
  <circle cx="420.981" cy="545" r="7.5" stroke-width="0.5" stroke="rgb(0,0,0)" fill="rgb(0,255,0)"/>
  <circle cx="420.981" cy="545" r="4.503" stroke-width="0.5" stroke="rgb(0,0,0)" fill="rgb(0,125,0)"/>
   </g>
   <g id="cell14">
  <circle cx="420.981" cy="560" r="7.5" stroke-width="0.5" stroke="rgb(0,0,0)" fill="rgb(0,255,0)"/>
  <circle cx="420.981" cy="560" r="4.503" stroke-width="0.5" stroke="rgb(0,0,0)" fill="rgb(0,125,0)"/>
   </g>
   <g id="cell15">
  <circle cx="433.971" cy="432.5" r="7.5" stroke-width="0.5" stroke="rgb(0,0,0)" fill="rgb(0,255,0)"/>
  <circle cx="433.971" cy="432.5" r="4.503" stroke-width="0.5" stroke="rgb(0,0,0)" fill="rgb(0,125,0)"/>
   </g>
   <g id="cell16">
  <circle cx="433.971" cy="447.5" r="7.5" stroke-width="0.5" stroke="rgb(0,0,0)" fill="rgb(0,255,0)"/>
  <circle cx="433.971" cy="447.5" r="4.503" stroke-width="0.5" stroke="rgb(0,0,0)" fill="rgb(0,125,0)"/>
   </g>
   <g id="cell17">
  <circle cx="433.971" cy="462.5" r="7.5" stroke-width="0.5" stroke="rgb(0,0,0)" fill="rgb(0,255,0)"/>
  <circle cx="433.971" cy="462.5" r="4.503" stroke-width="0.5" stroke="rgb(0,0,0)" fill="rgb(0,125,0)"/>
   </g>
   <g id="cell18">
  <circle cx="433.971" cy="477.5" r="7.5" stroke-width="0.5" stroke="rgb(0,0,0)" fill="rgb(0,255,0)"/>
  <circle cx="433.971" cy="477.5" r="4.503" stroke-width="0.5" stroke="rgb(0,0,0)" fill="rgb(0,125,0)"/>
   </g>
   <g id="cell19">
  <circle cx="433.971" cy="492.5" r="7.5" stroke-width="0.5" stroke="rgb(0,0,0)" fill="rgb(0,255,0)"/>
  <circle cx="433.971" cy="492.5" r="4.503" stroke-width="0.5" stroke="rgb(0,0,0)" fill="rgb(0,125,0)"/>
   </g>
   <g id="cell20">
  <circle cx="433.971" cy="507.5" r="7.5" stroke-width="0.5" stroke="rgb(0,0,0)" fill="rgb(0,255,0)"/>
  <circle cx="433.971" cy="507.5" r="4.503" stroke-width="0.5" stroke="rgb(0,0,0)" fill="rgb(0,125,0)"/>
   </g>
   <g id="cell21">
  <circle cx="433.971" cy="522.5" r="7.5" stroke-width="0.5" stroke="rgb(0,0,0)" fill="rgb(0,255,0)"/>
  <circle cx="433.971" cy="522.5" r="4.503" stroke-width="0.5" stroke="rgb(0,0,0)" fill="rgb(0,125,0)"/>
   </g>
   <g id="cell22">
  <circle cx="433.971" cy="537.5" r="7.5" stroke-width="0.5" stroke="rgb(0,0,0)" fill="rgb(0,255,0)"/>
  <circle cx="433.971" cy="537.5" r="4.503" stroke-width="0.5" stroke="rgb(0,0,0)" fill="rgb(0,125,0)"/>
   </g>
   <g id="cell23">
  <circle cx="433.971" cy="552.5" r="7.5" stroke-width="0.5" stroke="rgb(0,0,0)" fill="rgb(0,255,0)"/>
  <circle cx="433.971" cy="552.5" r="4.503" stroke-width="0.5" stroke="rgb(0,0,0)" fill="rgb(0,125,0)"/>
   </g>
   <g id="cell24">
  <circle cx="433.971" cy="567.5" r="7.5" stroke-width="0.5" stroke="rgb(0,0,0)" fill="rgb(0,255,0)"/>
  <circle cx="433.971" cy="567.5" r="4.503" stroke-width="0.5" stroke="rgb(0,0,0)" fill="rgb(0,125,0)"/>
   </g>
   <g id="cell25">
  <circle cx="446.962" cy="410" r="7.5" stroke-width="0.5" stroke="rgb(0,0,0)" fill="rgb(0,255,0)"/>
  <circle cx="446.962" cy="410" r="4.503" stroke-width="0.5" stroke="rgb(0,0,0)" fill="rgb(0,125,0)"/>
   </g>
   <g id="cell26">
  <circle cx="446.962" cy="425" r="7.5" stroke-width="0.5" stroke="rgb(0,0,0)" fill="rgb(0,255,0)"/>
  <circle cx="446.962" cy="425" r="4.503" stroke-width="0.5" stroke="rgb(0,0,0)" fill="rgb(0,125,0)"/>
   </g>
   <g id="cell27">
  <circle cx="446.962" cy="440" r="7.5" stroke-width="0.5" stroke="rgb(0,0,0)" fill="rgb(0,255,0)"/>
  <circle cx="446.962" cy="440" r="4.503" stroke-width="0.5" stroke="rgb(0,0,0)" fill="rgb(0,125,0)"/>
   </g>
   <g id="cell28">
  <circle cx="446.962" cy="455" r="7.5" stroke-width="0.5" stroke="rgb(0,0,0)" fill="rgb(0,255,0)"/>
  <circle cx="446.962" cy="455" r="4.503" stroke-width="0.5" stroke="rgb(0,0,0)" fill="rgb(0,125,0)"/>
   </g>
   <g id="cell29">
  <circle cx="446.962" cy="470" r="7.5" stroke-width="0.5" stroke="rgb(0,0,0)" fill="rgb(0,255,0)"/>
  <circle cx="446.962" cy="470" r="4.503" stroke-width="0.5" stroke="rgb(0,0,0)" fill="rgb(0,125,0)"/>
   </g>
   <g id="cell30">
  <circle cx="446.962" cy="485" r="7.5" stroke-width="0.5" stroke="rgb(0,0,0)" fill="rgb(0,255,0)"/>
  <circle cx="446.962" cy="485" r="4.503" stroke-width="0.5" stroke="rgb(0,0,0)" fill="rgb(0,125,0)"/>
   </g>
   <g id="cell31">
  <circle cx="446.962" cy="500" r="7.5" stroke-width="0.5" stroke="rgb(0,0,0)" fill="rgb(0,255,0)"/>
  <circle cx="446.962" cy="500" r="4.503" stroke-width="0.5" stroke="rgb(0,0,0)" fill="rgb(0,125,0)"/>
   </g>
   <g id="cell32">
  <circle cx="446.962" cy="515" r="7.5" stroke-width="0.5" stroke="rgb(0,0,0)" fill="rgb(0,255,0)"/>
  <circle cx="446.962" cy="515" r="4.503" stroke-width="0.5" stroke="rgb(0,0,0)" fill="rgb(0,125,0)"/>
   </g>
   <g id="cell33">
  <circle cx="446.962" cy="530" r="7.5" stroke-width="0.5" stroke="rgb(0,0,0)" fill="rgb(0,255,0)"/>
  <circle cx="446.962" cy="530" r="4.503" stroke-width="0.5" stroke="rgb(0,0,0)" fill="rgb(0,125,0)"/>
   </g>
   <g id="cell34">
  <circle cx="446.962" cy="545" r="7.5" stroke-width="0.5" stroke="rgb(0,0,0)" fill="rgb(0,255,0)"/>
  <circle cx="446.962" cy="545" r="4.503" stroke-width="0.5" stroke="rgb(0,0,0)" fill="rgb(0,125,0)"/>
   </g>
   <g id="cell35">
  <circle cx="446.962" cy="560" r="7.5" stroke-width="0.5" stroke="rgb(0,0,0)" fill="rgb(0,255,0)"/>
  <circle cx="446.962" cy="560" r="4.503" stroke-width="0.5" stroke="rgb(0,0,0)" fill="rgb(0,125,0)"/>
   </g>
   <g id="cell36">
  <circle cx="446.962" cy="575" r="7.5" stroke-width="0.5" stroke="rgb(0,0,0)" fill="rgb(0,255,0)"/>
  <circle cx="446.962" cy="575" r="4.503" stroke-width="0.5" stroke="rgb(0,0,0)" fill="rgb(0,125,0)"/>
   </g>
   <g id="cell37">
  <circle cx="446.962" cy="590" r="7.5" stroke-width="0.5" stroke="rgb(0,0,0)" fill="rgb(0,255,0)"/>
  <circle cx="446.962" cy="590" r="4.503" stroke-width="0.5" stroke="rgb(0,0,0)" fill="rgb(0,125,0)"/>
   </g>
   <g id="cell38">
  <circle cx="459.952" cy="417.5" r="7.5" stroke-width="0.5" stroke="rgb(0,0,0)" fill="rgb(0,255,0)"/>
  <circle cx="459.952" cy="417.5" r="4.503" stroke-width="0.5" stroke="rgb(0,0,0)" fill="rgb(0,125,0)"/>
   </g>
   <g id="cell39">
  <circle cx="459.952" cy="432.5" r="7.5" stroke-width="0.5" stroke="rgb(0,0,0)" fill="rgb(0,255,0)"/>
  <circle cx="459.952" cy="432.5" r="4.503" stroke-width="0.5" stroke="rgb(0,0,0)" fill="rgb(0,125,0)"/>
   </g>
   <g id="cell40">
  <circle cx="459.952" cy="447.5" r="7.5" stroke-width="0.5" stroke="rgb(0,0,0)" fill="rgb(0,255,0)"/>
  <circle cx="459.952" cy="447.5" r="4.503" stroke-width="0.5" stroke="rgb(0,0,0)" fill="rgb(0,125,0)"/>
   </g>
   <g id="cell41">
  <circle cx="459.952" cy="462.5" r="7.5" stroke-width="0.5" stroke="rgb(0,0,0)" fill="rgb(0,255,0)"/>
  <circle cx="459.952" cy="462.5" r="4.503" stroke-width="0.5" stroke="rgb(0,0,0)" fill="rgb(0,125,0)"/>
   </g>
   <g id="cell42">
  <circle cx="459.952" cy="477.5" r="7.5" stroke-width="0.5" stroke="rgb(0,0,0)" fill="rgb(0,255,0)"/>
  <circle cx="459.952" cy="477.5" r="4.503" stroke-width="0.5" stroke="rgb(0,0,0)" fill="rgb(0,125,0)"/>
   </g>
   <g id="cell43">
  <circle cx="459.952" cy="492.5" r="7.5" stroke-width="0.5" stroke="rgb(0,0,0)" fill="rgb(0,255,0)"/>
  <circle cx="459.952" cy="492.5" r="4.503" stroke-width="0.5" stroke="rgb(0,0,0)" fill="rgb(0,125,0)"/>
   </g>
   <g id="cell44">
  <circle cx="459.952" cy="507.5" r="7.5" stroke-width="0.5" stroke="rgb(0,0,0)" fill="rgb(0,255,0)"/>
  <circle cx="459.952" cy="507.5" r="4.503" stroke-width="0.5" stroke="rgb(0,0,0)" fill="rgb(0,125,0)"/>
   </g>
   <g id="cell45">
  <circle cx="459.952" cy="522.5" r="7.5" stroke-width="0.5" stroke="rgb(0,0,0)" fill="rgb(0,255,0)"/>
  <circle cx="459.952" cy="522.5" r="4.503" stroke-width="0.5" stroke="rgb(0,0,0)" fill="rgb(0,125,0)"/>
   </g>
   <g id="cell46">
  <circle cx="459.952" cy="537.5" r="7.5" stroke-width="0.5" stroke="rgb(0,0,0)" fill="rgb(0,255,0)"/>
  <circle cx="459.952" cy="537.5" r="4.503" stroke-width="0.5" stroke="rgb(0,0,0)" fill="rgb(0,125,0)"/>
   </g>
   <g id="cell47">
  <circle cx="459.952" cy="552.5" r="7.5" stroke-width="0.5" stroke="rgb(0,0,0)" fill="rgb(0,255,0)"/>
  <circle cx="459.952" cy="552.5" r="4.503" stroke-width="0.5" stroke="rgb(0,0,0)" fill="rgb(0,125,0)"/>
   </g>
   <g id="cell48">
  <circle cx="459.952" cy="567.5" r="7.5" stroke-width="0.5" stroke="rgb(0,0,0)" fill="rgb(0,255,0)"/>
  <circle cx="459.952" cy="567.5" r="4.503" stroke-width="0.5" stroke="rgb(0,0,0)" fill="rgb(0,125,0)"/>
   </g>
   <g id="cell49">
  <circle cx="459.952" cy="582.5" r="7.5" stroke-width="0.5" stroke="rgb(0,0,0)" fill="rgb(0,255,0)"/>
  <circle cx="459.952" cy="582.5" r="4.503" stroke-width="0.5" stroke="rgb(0,0,0)" fill="rgb(0,125,0)"/>
   </g>
   <g id="cell50">
  <circle cx="472.942" cy="410" r="7.5" stroke-width="0.5" stroke="rgb(0,0,0)" fill="rgb(0,255,0)"/>
  <circle cx="472.942" cy="410" r="4.503" stroke-width="0.5" stroke="rgb(0,0,0)" fill="rgb(0,125,0)"/>
   </g>
   <g id="cell51">
  <circle cx="472.942" cy="425" r="7.5" stroke-width="0.5" stroke="rgb(0,0,0)" fill="rgb(0,255,0)"/>
  <circle cx="472.942" cy="425" r="4.503" stroke-width="0.5" stroke="rgb(0,0,0)" fill="rgb(0,125,0)"/>
   </g>
   <g id="cell52">
  <circle cx="472.942" cy="440" r="7.5" stroke-width="0.5" stroke="rgb(0,0,0)" fill="rgb(0,255,0)"/>
  <circle cx="472.942" cy="440" r="4.503" stroke-width="0.5" stroke="rgb(0,0,0)" fill="rgb(0,125,0)"/>
   </g>
   <g id="cell53">
  <circle cx="472.942" cy="455" r="7.5" stroke-width="0.5" stroke="rgb(0,0,0)" fill="rgb(0,255,0)"/>
  <circle cx="472.942" cy="455" r="4.503" stroke-width="0.5" stroke="rgb(0,0,0)" fill="rgb(0,125,0)"/>
   </g>
   <g id="cell54">
  <circle cx="472.942" cy="470" r="7.5" stroke-width="0.5" stroke="rgb(0,0,0)" fill="rgb(0,255,0)"/>
  <circle cx="472.942" cy="470" r="4.503" stroke-width="0.5" stroke="rgb(0,0,0)" fill="rgb(0,125,0)"/>
   </g>
   <g id="cell55">
  <circle cx="472.942" cy="485" r="7.5" stroke-width="0.5" stroke="rgb(0,0,0)" fill="rgb(0,255,0)"/>
  <circle cx="472.942" cy="485" r="4.503" stroke-width="0.5" stroke="rgb(0,0,0)" fill="rgb(0,125,0)"/>
   </g>
   <g id="cell56">
  <circle cx="472.942" cy="500" r="7.5" stroke-width="0.5" stroke="rgb(0,0,0)" fill="rgb(0,255,0)"/>
  <circle cx="472.942" cy="500" r="4.503" stroke-width="0.5" stroke="rgb(0,0,0)" fill="rgb(0,125,0)"/>
   </g>
   <g id="cell57">
  <circle cx="472.942" cy="515" r="7.5" stroke-width="0.5" stroke="rgb(0,0,0)" fill="rgb(0,255,0)"/>
  <circle cx="472.942" cy="515" r="4.503" stroke-width="0.5" stroke="rgb(0,0,0)" fill="rgb(0,125,0)"/>
   </g>
   <g id="cell58">
  <circle cx="472.942" cy="530" r="7.5" stroke-width="0.5" stroke="rgb(0,0,0)" fill="rgb(0,255,0)"/>
  <circle cx="472.942" cy="530" r="4.503" stroke-width="0.5" stroke="rgb(0,0,0)" fill="rgb(0,125,0)"/>
   </g>
   <g id="cell59">
  <circle cx="472.942" cy="545" r="7.5" stroke-width="0.5" stroke="rgb(0,0,0)" fill="rgb(0,255,0)"/>
  <circle cx="472.942" cy="545" r="4.503" stroke-width="0.5" stroke="rgb(0,0,0)" fill="rgb(0,125,0)"/>
   </g>
   <g id="cell60">
  <circle cx="472.942" cy="560" r="7.5" stroke-width="0.5" stroke="rgb(0,0,0)" fill="rgb(0,255,0)"/>
  <circle cx="472.942" cy="560" r="4.503" stroke-width="0.5" stroke="rgb(0,0,0)" fill="rgb(0,125,0)"/>
   </g>
   <g id="cell61">
  <circle cx="472.942" cy="575" r="7.5" stroke-width="0.5" stroke="rgb(0,0,0)" fill="rgb(0,255,0)"/>
  <circle cx="472.942" cy="575" r="4.503" stroke-width="0.5" stroke="rgb(0,0,0)" fill="rgb(0,125,0)"/>
   </g>
   <g id="cell62">
  <circle cx="472.942" cy="590" r="7.5" stroke-width="0.5" stroke="rgb(0,0,0)" fill="rgb(0,255,0)"/>
  <circle cx="472.942" cy="590" r="4.503" stroke-width="0.5" stroke="rgb(0,0,0)" fill="rgb(0,125,0)"/>
   </g>
   <g id="cell63">
  <circle cx="485.933" cy="402.5" r="7.5" stroke-width="0.5" stroke="rgb(0,0,0)" fill="rgb(0,255,0)"/>
  <circle cx="485.933" cy="402.5" r="4.503" stroke-width="0.5" stroke="rgb(0,0,0)" fill="rgb(0,125,0)"/>
   </g>
   <g id="cell64">
  <circle cx="485.933" cy="417.5" r="7.5" stroke-width="0.5" stroke="rgb(0,0,0)" fill="rgb(0,255,0)"/>
  <circle cx="485.933" cy="417.5" r="4.503" stroke-width="0.5" stroke="rgb(0,0,0)" fill="rgb(0,125,0)"/>
   </g>
   <g id="cell65">
  <circle cx="485.933" cy="432.5" r="7.5" stroke-width="0.5" stroke="rgb(0,0,0)" fill="rgb(0,255,0)"/>
  <circle cx="485.933" cy="432.5" r="4.503" stroke-width="0.5" stroke="rgb(0,0,0)" fill="rgb(0,125,0)"/>
   </g>
   <g id="cell66">
  <circle cx="485.933" cy="447.5" r="7.5" stroke-width="0.5" stroke="rgb(0,0,0)" fill="rgb(0,255,0)"/>
  <circle cx="485.933" cy="447.5" r="4.503" stroke-width="0.5" stroke="rgb(0,0,0)" fill="rgb(0,125,0)"/>
   </g>
   <g id="cell67">
  <circle cx="485.933" cy="462.5" r="7.5" stroke-width="0.5" stroke="rgb(0,0,0)" fill="rgb(0,255,0)"/>
  <circle cx="485.933" cy="462.5" r="4.503" stroke-width="0.5" stroke="rgb(0,0,0)" fill="rgb(0,125,0)"/>
   </g>
   <g id="cell68">
  <circle cx="485.933" cy="477.5" r="7.5" stroke-width="0.5" stroke="rgb(0,0,0)" fill="rgb(0,255,0)"/>
  <circle cx="485.933" cy="477.5" r="4.503" stroke-width="0.5" stroke="rgb(0,0,0)" fill="rgb(0,125,0)"/>
   </g>
   <g id="cell69">
  <circle cx="485.933" cy="492.5" r="7.5" stroke-width="0.5" stroke="rgb(0,0,0)" fill="rgb(0,255,0)"/>
  <circle cx="485.933" cy="492.5" r="4.503" stroke-width="0.5" stroke="rgb(0,0,0)" fill="rgb(0,125,0)"/>
   </g>
   <g id="cell70">
  <circle cx="485.933" cy="507.5" r="7.5" stroke-width="0.5" stroke="rgb(0,0,0)" fill="rgb(0,255,0)"/>
  <circle cx="485.933" cy="507.5" r="4.503" stroke-width="0.5" stroke="rgb(0,0,0)" fill="rgb(0,125,0)"/>
   </g>
   <g id="cell71">
  <circle cx="485.933" cy="522.5" r="7.5" stroke-width="0.5" stroke="rgb(0,0,0)" fill="rgb(0,255,0)"/>
  <circle cx="485.933" cy="522.5" r="4.503" stroke-width="0.5" stroke="rgb(0,0,0)" fill="rgb(0,125,0)"/>
   </g>
   <g id="cell72">
  <circle cx="485.933" cy="537.5" r="7.5" stroke-width="0.5" stroke="rgb(0,0,0)" fill="rgb(0,255,0)"/>
  <circle cx="485.933" cy="537.5" r="4.503" stroke-width="0.5" stroke="rgb(0,0,0)" fill="rgb(0,125,0)"/>
   </g>
   <g id="cell73">
  <circle cx="485.933" cy="552.5" r="7.5" stroke-width="0.5" stroke="rgb(0,0,0)" fill="rgb(0,255,0)"/>
  <circle cx="485.933" cy="552.5" r="4.503" stroke-width="0.5" stroke="rgb(0,0,0)" fill="rgb(0,125,0)"/>
   </g>
   <g id="cell74">
  <circle cx="485.933" cy="567.5" r="7.5" stroke-width="0.5" stroke="rgb(0,0,0)" fill="rgb(0,255,0)"/>
  <circle cx="485.933" cy="567.5" r="4.503" stroke-width="0.5" stroke="rgb(0,0,0)" fill="rgb(0,125,0)"/>
   </g>
   <g id="cell75">
  <circle cx="485.933" cy="582.5" r="7.5" stroke-width="0.5" stroke="rgb(0,0,0)" fill="rgb(0,255,0)"/>
  <circle cx="485.933" cy="582.5" r="4.503" stroke-width="0.5" stroke="rgb(0,0,0)" fill="rgb(0,125,0)"/>
   </g>
   <g id="cell76">
  <circle cx="485.933" cy="597.5" r="7.5" stroke-width="0.5" stroke="rgb(0,0,0)" fill="rgb(0,255,0)"/>
  <circle cx="485.933" cy="597.5" r="4.503" stroke-width="0.5" stroke="rgb(0,0,0)" fill="rgb(0,125,0)"/>
   </g>
   <g id="cell77">
  <circle cx="498.923" cy="410" r="7.5" stroke-width="0.5" stroke="rgb(0,0,0)" fill="rgb(0,255,0)"/>
  <circle cx="498.923" cy="410" r="4.503" stroke-width="0.5" stroke="rgb(0,0,0)" fill="rgb(0,125,0)"/>
   </g>
   <g id="cell78">
  <circle cx="498.923" cy="425" r="7.5" stroke-width="0.5" stroke="rgb(0,0,0)" fill="rgb(0,255,0)"/>
  <circle cx="498.923" cy="425" r="4.503" stroke-width="0.5" stroke="rgb(0,0,0)" fill="rgb(0,125,0)"/>
   </g>
   <g id="cell79">
  <circle cx="498.923" cy="440" r="7.5" stroke-width="0.5" stroke="rgb(0,0,0)" fill="rgb(0,255,0)"/>
  <circle cx="498.923" cy="440" r="4.503" stroke-width="0.5" stroke="rgb(0,0,0)" fill="rgb(0,125,0)"/>
   </g>
   <g id="cell80">
  <circle cx="498.923" cy="455" r="7.5" stroke-width="0.5" stroke="rgb(0,0,0)" fill="rgb(0,255,0)"/>
  <circle cx="498.923" cy="455" r="4.503" stroke-width="0.5" stroke="rgb(0,0,0)" fill="rgb(0,125,0)"/>
   </g>
   <g id="cell81">
  <circle cx="498.923" cy="470" r="7.5" stroke-width="0.5" stroke="rgb(0,0,0)" fill="rgb(0,255,0)"/>
  <circle cx="498.923" cy="470" r="4.503" stroke-width="0.5" stroke="rgb(0,0,0)" fill="rgb(0,125,0)"/>
   </g>
   <g id="cell82">
  <circle cx="498.923" cy="485" r="7.5" stroke-width="0.5" stroke="rgb(0,0,0)" fill="rgb(0,255,0)"/>
  <circle cx="498.923" cy="485" r="4.503" stroke-width="0.5" stroke="rgb(0,0,0)" fill="rgb(0,125,0)"/>
   </g>
   <g id="cell83">
  <circle cx="498.923" cy="500" r="7.5" stroke-width="0.5" stroke="rgb(0,0,0)" fill="rgb(0,255,0)"/>
  <circle cx="498.923" cy="500" r="4.503" stroke-width="0.5" stroke="rgb(0,0,0)" fill="rgb(0,125,0)"/>
   </g>
   <g id="cell84">
  <circle cx="498.923" cy="515" r="7.5" stroke-width="0.5" stroke="rgb(0,0,0)" fill="rgb(0,255,0)"/>
  <circle cx="498.923" cy="515" r="4.503" stroke-width="0.5" stroke="rgb(0,0,0)" fill="rgb(0,125,0)"/>
   </g>
   <g id="cell85">
  <circle cx="498.923" cy="530" r="7.5" stroke-width="0.5" stroke="rgb(0,0,0)" fill="rgb(0,255,0)"/>
  <circle cx="498.923" cy="530" r="4.503" stroke-width="0.5" stroke="rgb(0,0,0)" fill="rgb(0,125,0)"/>
   </g>
   <g id="cell86">
  <circle cx="498.923" cy="545" r="7.5" stroke-width="0.5" stroke="rgb(0,0,0)" fill="rgb(0,255,0)"/>
  <circle cx="498.923" cy="545" r="4.503" stroke-width="0.5" stroke="rgb(0,0,0)" fill="rgb(0,125,0)"/>
   </g>
   <g id="cell87">
  <circle cx="498.923" cy="560" r="7.5" stroke-width="0.5" stroke="rgb(0,0,0)" fill="rgb(0,255,0)"/>
  <circle cx="498.923" cy="560" r="4.503" stroke-width="0.5" stroke="rgb(0,0,0)" fill="rgb(0,125,0)"/>
   </g>
   <g id="cell88">
  <circle cx="498.923" cy="575" r="7.5" stroke-width="0.5" stroke="rgb(0,0,0)" fill="rgb(0,255,0)"/>
  <circle cx="498.923" cy="575" r="4.503" stroke-width="0.5" stroke="rgb(0,0,0)" fill="rgb(0,125,0)"/>
   </g>
   <g id="cell89">
  <circle cx="498.923" cy="590" r="7.5" stroke-width="0.5" stroke="rgb(0,0,0)" fill="rgb(0,255,0)"/>
  <circle cx="498.923" cy="590" r="4.503" stroke-width="0.5" stroke="rgb(0,0,0)" fill="rgb(0,125,0)"/>
   </g>
   <g id="cell90">
  <circle cx="511.913" cy="402.5" r="7.5" stroke-width="0.5" stroke="rgb(0,0,0)" fill="rgb(0,255,0)"/>
  <circle cx="511.913" cy="402.5" r="4.503" stroke-width="0.5" stroke="rgb(0,0,0)" fill="rgb(0,125,0)"/>
   </g>
   <g id="cell91">
  <circle cx="511.913" cy="417.5" r="7.5" stroke-width="0.5" stroke="rgb(0,0,0)" fill="rgb(0,255,0)"/>
  <circle cx="511.913" cy="417.5" r="4.503" stroke-width="0.5" stroke="rgb(0,0,0)" fill="rgb(0,125,0)"/>
   </g>
   <g id="cell92">
  <circle cx="511.913" cy="432.5" r="7.5" stroke-width="0.5" stroke="rgb(0,0,0)" fill="rgb(0,255,0)"/>
  <circle cx="511.913" cy="432.5" r="4.503" stroke-width="0.5" stroke="rgb(0,0,0)" fill="rgb(0,125,0)"/>
   </g>
   <g id="cell93">
  <circle cx="511.913" cy="447.5" r="7.5" stroke-width="0.5" stroke="rgb(0,0,0)" fill="rgb(0,255,0)"/>
  <circle cx="511.913" cy="447.5" r="4.503" stroke-width="0.5" stroke="rgb(0,0,0)" fill="rgb(0,125,0)"/>
   </g>
   <g id="cell94">
  <circle cx="511.913" cy="462.5" r="7.5" stroke-width="0.5" stroke="rgb(0,0,0)" fill="rgb(0,255,0)"/>
  <circle cx="511.913" cy="462.5" r="4.503" stroke-width="0.5" stroke="rgb(0,0,0)" fill="rgb(0,125,0)"/>
   </g>
   <g id="cell95">
  <circle cx="511.913" cy="477.5" r="7.5" stroke-width="0.5" stroke="rgb(0,0,0)" fill="rgb(0,255,0)"/>
  <circle cx="511.913" cy="477.5" r="4.503" stroke-width="0.5" stroke="rgb(0,0,0)" fill="rgb(0,125,0)"/>
   </g>
   <g id="cell96">
  <circle cx="511.913" cy="492.5" r="7.5" stroke-width="0.5" stroke="rgb(0,0,0)" fill="rgb(0,255,0)"/>
  <circle cx="511.913" cy="492.5" r="4.503" stroke-width="0.5" stroke="rgb(0,0,0)" fill="rgb(0,125,0)"/>
   </g>
   <g id="cell97">
  <circle cx="511.913" cy="507.5" r="7.5" stroke-width="0.5" stroke="rgb(0,0,0)" fill="rgb(0,255,0)"/>
  <circle cx="511.913" cy="507.5" r="4.503" stroke-width="0.5" stroke="rgb(0,0,0)" fill="rgb(0,125,0)"/>
   </g>
   <g id="cell98">
  <circle cx="511.913" cy="522.5" r="7.5" stroke-width="0.5" stroke="rgb(0,0,0)" fill="rgb(0,255,0)"/>
  <circle cx="511.913" cy="522.5" r="4.503" stroke-width="0.5" stroke="rgb(0,0,0)" fill="rgb(0,125,0)"/>
   </g>
   <g id="cell99">
  <circle cx="511.913" cy="537.5" r="7.5" stroke-width="0.5" stroke="rgb(0,0,0)" fill="rgb(0,255,0)"/>
  <circle cx="511.913" cy="537.5" r="4.503" stroke-width="0.5" stroke="rgb(0,0,0)" fill="rgb(0,125,0)"/>
   </g>
   <g id="cell100">
  <circle cx="511.913" cy="552.5" r="7.5" stroke-width="0.5" stroke="rgb(0,0,0)" fill="rgb(0,255,0)"/>
  <circle cx="511.913" cy="552.5" r="4.503" stroke-width="0.5" stroke="rgb(0,0,0)" fill="rgb(0,125,0)"/>
   </g>
   <g id="cell101">
  <circle cx="511.913" cy="567.5" r="7.5" stroke-width="0.5" stroke="rgb(0,0,0)" fill="rgb(0,255,0)"/>
  <circle cx="511.913" cy="567.5" r="4.503" stroke-width="0.5" stroke="rgb(0,0,0)" fill="rgb(0,125,0)"/>
   </g>
   <g id="cell102">
  <circle cx="511.913" cy="582.5" r="7.5" stroke-width="0.5" stroke="rgb(0,0,0)" fill="rgb(0,255,0)"/>
  <circle cx="511.913" cy="582.5" r="4.503" stroke-width="0.5" stroke="rgb(0,0,0)" fill="rgb(0,125,0)"/>
   </g>
   <g id="cell103">
  <circle cx="511.913" cy="597.5" r="7.5" stroke-width="0.5" stroke="rgb(0,0,0)" fill="rgb(0,255,0)"/>
  <circle cx="511.913" cy="597.5" r="4.503" stroke-width="0.5" stroke="rgb(0,0,0)" fill="rgb(0,125,0)"/>
   </g>
   <g id="cell104">
  <circle cx="524.904" cy="410" r="7.5" stroke-width="0.5" stroke="rgb(0,0,0)" fill="rgb(0,255,0)"/>
  <circle cx="524.904" cy="410" r="4.503" stroke-width="0.5" stroke="rgb(0,0,0)" fill="rgb(0,125,0)"/>
   </g>
   <g id="cell105">
  <circle cx="524.904" cy="425" r="7.5" stroke-width="0.5" stroke="rgb(0,0,0)" fill="rgb(0,255,0)"/>
  <circle cx="524.904" cy="425" r="4.503" stroke-width="0.5" stroke="rgb(0,0,0)" fill="rgb(0,125,0)"/>
   </g>
   <g id="cell106">
  <circle cx="524.904" cy="440" r="7.5" stroke-width="0.5" stroke="rgb(0,0,0)" fill="rgb(0,255,0)"/>
  <circle cx="524.904" cy="440" r="4.503" stroke-width="0.5" stroke="rgb(0,0,0)" fill="rgb(0,125,0)"/>
   </g>
   <g id="cell107">
  <circle cx="524.904" cy="455" r="7.5" stroke-width="0.5" stroke="rgb(0,0,0)" fill="rgb(0,255,0)"/>
  <circle cx="524.904" cy="455" r="4.503" stroke-width="0.5" stroke="rgb(0,0,0)" fill="rgb(0,125,0)"/>
   </g>
   <g id="cell108">
  <circle cx="524.904" cy="470" r="7.5" stroke-width="0.5" stroke="rgb(0,0,0)" fill="rgb(0,255,0)"/>
  <circle cx="524.904" cy="470" r="4.503" stroke-width="0.5" stroke="rgb(0,0,0)" fill="rgb(0,125,0)"/>
   </g>
   <g id="cell109">
  <circle cx="524.904" cy="485" r="7.5" stroke-width="0.5" stroke="rgb(0,0,0)" fill="rgb(0,255,0)"/>
  <circle cx="524.904" cy="485" r="4.503" stroke-width="0.5" stroke="rgb(0,0,0)" fill="rgb(0,125,0)"/>
   </g>
   <g id="cell110">
  <circle cx="524.904" cy="500" r="7.5" stroke-width="0.5" stroke="rgb(0,0,0)" fill="rgb(0,255,0)"/>
  <circle cx="524.904" cy="500" r="4.503" stroke-width="0.5" stroke="rgb(0,0,0)" fill="rgb(0,125,0)"/>
   </g>
   <g id="cell111">
  <circle cx="524.904" cy="515" r="7.5" stroke-width="0.5" stroke="rgb(0,0,0)" fill="rgb(0,255,0)"/>
  <circle cx="524.904" cy="515" r="4.503" stroke-width="0.5" stroke="rgb(0,0,0)" fill="rgb(0,125,0)"/>
   </g>
   <g id="cell112">
  <circle cx="524.904" cy="530" r="7.5" stroke-width="0.5" stroke="rgb(0,0,0)" fill="rgb(0,255,0)"/>
  <circle cx="524.904" cy="530" r="4.503" stroke-width="0.5" stroke="rgb(0,0,0)" fill="rgb(0,125,0)"/>
   </g>
   <g id="cell113">
  <circle cx="524.904" cy="545" r="7.5" stroke-width="0.5" stroke="rgb(0,0,0)" fill="rgb(0,255,0)"/>
  <circle cx="524.904" cy="545" r="4.503" stroke-width="0.5" stroke="rgb(0,0,0)" fill="rgb(0,125,0)"/>
   </g>
   <g id="cell114">
  <circle cx="524.904" cy="560" r="7.5" stroke-width="0.5" stroke="rgb(0,0,0)" fill="rgb(0,255,0)"/>
  <circle cx="524.904" cy="560" r="4.503" stroke-width="0.5" stroke="rgb(0,0,0)" fill="rgb(0,125,0)"/>
   </g>
   <g id="cell115">
  <circle cx="524.904" cy="575" r="7.5" stroke-width="0.5" stroke="rgb(0,0,0)" fill="rgb(0,255,0)"/>
  <circle cx="524.904" cy="575" r="4.503" stroke-width="0.5" stroke="rgb(0,0,0)" fill="rgb(0,125,0)"/>
   </g>
   <g id="cell116">
  <circle cx="524.904" cy="590" r="7.5" stroke-width="0.5" stroke="rgb(0,0,0)" fill="rgb(0,255,0)"/>
  <circle cx="524.904" cy="590" r="4.503" stroke-width="0.5" stroke="rgb(0,0,0)" fill="rgb(0,125,0)"/>
   </g>
   <g id="cell117">
  <circle cx="537.894" cy="402.5" r="7.5" stroke-width="0.5" stroke="rgb(0,0,0)" fill="rgb(0,255,0)"/>
  <circle cx="537.894" cy="402.5" r="4.503" stroke-width="0.5" stroke="rgb(0,0,0)" fill="rgb(0,125,0)"/>
   </g>
   <g id="cell118">
  <circle cx="537.894" cy="417.5" r="7.5" stroke-width="0.5" stroke="rgb(0,0,0)" fill="rgb(0,255,0)"/>
  <circle cx="537.894" cy="417.5" r="4.503" stroke-width="0.5" stroke="rgb(0,0,0)" fill="rgb(0,125,0)"/>
   </g>
   <g id="cell119">
  <circle cx="537.894" cy="432.5" r="7.5" stroke-width="0.5" stroke="rgb(0,0,0)" fill="rgb(0,255,0)"/>
  <circle cx="537.894" cy="432.5" r="4.503" stroke-width="0.5" stroke="rgb(0,0,0)" fill="rgb(0,125,0)"/>
   </g>
   <g id="cell120">
  <circle cx="537.894" cy="447.5" r="7.5" stroke-width="0.5" stroke="rgb(0,0,0)" fill="rgb(0,255,0)"/>
  <circle cx="537.894" cy="447.5" r="4.503" stroke-width="0.5" stroke="rgb(0,0,0)" fill="rgb(0,125,0)"/>
   </g>
   <g id="cell121">
  <circle cx="537.894" cy="462.5" r="7.5" stroke-width="0.5" stroke="rgb(0,0,0)" fill="rgb(0,255,0)"/>
  <circle cx="537.894" cy="462.5" r="4.503" stroke-width="0.5" stroke="rgb(0,0,0)" fill="rgb(0,125,0)"/>
   </g>
   <g id="cell122">
  <circle cx="537.894" cy="477.5" r="7.5" stroke-width="0.5" stroke="rgb(0,0,0)" fill="rgb(0,255,0)"/>
  <circle cx="537.894" cy="477.5" r="4.503" stroke-width="0.5" stroke="rgb(0,0,0)" fill="rgb(0,125,0)"/>
   </g>
   <g id="cell123">
  <circle cx="537.894" cy="492.5" r="7.5" stroke-width="0.5" stroke="rgb(0,0,0)" fill="rgb(0,255,0)"/>
  <circle cx="537.894" cy="492.5" r="4.503" stroke-width="0.5" stroke="rgb(0,0,0)" fill="rgb(0,125,0)"/>
   </g>
   <g id="cell124">
  <circle cx="537.894" cy="507.5" r="7.5" stroke-width="0.5" stroke="rgb(0,0,0)" fill="rgb(0,255,0)"/>
  <circle cx="537.894" cy="507.5" r="4.503" stroke-width="0.5" stroke="rgb(0,0,0)" fill="rgb(0,125,0)"/>
   </g>
   <g id="cell125">
  <circle cx="537.894" cy="522.5" r="7.5" stroke-width="0.5" stroke="rgb(0,0,0)" fill="rgb(0,255,0)"/>
  <circle cx="537.894" cy="522.5" r="4.503" stroke-width="0.5" stroke="rgb(0,0,0)" fill="rgb(0,125,0)"/>
   </g>
   <g id="cell126">
  <circle cx="537.894" cy="537.5" r="7.5" stroke-width="0.5" stroke="rgb(0,0,0)" fill="rgb(0,255,0)"/>
  <circle cx="537.894" cy="537.5" r="4.503" stroke-width="0.5" stroke="rgb(0,0,0)" fill="rgb(0,125,0)"/>
   </g>
   <g id="cell127">
  <circle cx="537.894" cy="552.5" r="7.5" stroke-width="0.5" stroke="rgb(0,0,0)" fill="rgb(0,255,0)"/>
  <circle cx="537.894" cy="552.5" r="4.503" stroke-width="0.5" stroke="rgb(0,0,0)" fill="rgb(0,125,0)"/>
   </g>
   <g id="cell128">
  <circle cx="537.894" cy="567.5" r="7.5" stroke-width="0.5" stroke="rgb(0,0,0)" fill="rgb(0,255,0)"/>
  <circle cx="537.894" cy="567.5" r="4.503" stroke-width="0.5" stroke="rgb(0,0,0)" fill="rgb(0,125,0)"/>
   </g>
   <g id="cell129">
  <circle cx="537.894" cy="582.5" r="7.5" stroke-width="0.5" stroke="rgb(0,0,0)" fill="rgb(0,255,0)"/>
  <circle cx="537.894" cy="582.5" r="4.503" stroke-width="0.5" stroke="rgb(0,0,0)" fill="rgb(0,125,0)"/>
   </g>
   <g id="cell130">
  <circle cx="537.894" cy="597.5" r="7.5" stroke-width="0.5" stroke="rgb(0,0,0)" fill="rgb(0,255,0)"/>
  <circle cx="537.894" cy="597.5" r="4.503" stroke-width="0.5" stroke="rgb(0,0,0)" fill="rgb(0,125,0)"/>
   </g>
   <g id="cell131">
  <circle cx="550.885" cy="410" r="7.5" stroke-width="0.5" stroke="rgb(0,0,0)" fill="rgb(0,255,0)"/>
  <circle cx="550.885" cy="410" r="4.503" stroke-width="0.5" stroke="rgb(0,0,0)" fill="rgb(0,125,0)"/>
   </g>
   <g id="cell132">
  <circle cx="550.885" cy="425" r="7.5" stroke-width="0.5" stroke="rgb(0,0,0)" fill="rgb(0,255,0)"/>
  <circle cx="550.885" cy="425" r="4.503" stroke-width="0.5" stroke="rgb(0,0,0)" fill="rgb(0,125,0)"/>
   </g>
   <g id="cell133">
  <circle cx="550.885" cy="440" r="7.5" stroke-width="0.5" stroke="rgb(0,0,0)" fill="rgb(0,255,0)"/>
  <circle cx="550.885" cy="440" r="4.503" stroke-width="0.5" stroke="rgb(0,0,0)" fill="rgb(0,125,0)"/>
   </g>
   <g id="cell134">
  <circle cx="550.885" cy="455" r="7.5" stroke-width="0.5" stroke="rgb(0,0,0)" fill="rgb(0,255,0)"/>
  <circle cx="550.885" cy="455" r="4.503" stroke-width="0.5" stroke="rgb(0,0,0)" fill="rgb(0,125,0)"/>
   </g>
   <g id="cell135">
  <circle cx="550.885" cy="470" r="7.5" stroke-width="0.5" stroke="rgb(0,0,0)" fill="rgb(0,255,0)"/>
  <circle cx="550.885" cy="470" r="4.503" stroke-width="0.5" stroke="rgb(0,0,0)" fill="rgb(0,125,0)"/>
   </g>
   <g id="cell136">
  <circle cx="550.885" cy="485" r="7.5" stroke-width="0.5" stroke="rgb(0,0,0)" fill="rgb(0,255,0)"/>
  <circle cx="550.885" cy="485" r="4.503" stroke-width="0.5" stroke="rgb(0,0,0)" fill="rgb(0,125,0)"/>
   </g>
   <g id="cell137">
  <circle cx="550.885" cy="500" r="7.5" stroke-width="0.5" stroke="rgb(0,0,0)" fill="rgb(0,255,0)"/>
  <circle cx="550.885" cy="500" r="4.503" stroke-width="0.5" stroke="rgb(0,0,0)" fill="rgb(0,125,0)"/>
   </g>
   <g id="cell138">
  <circle cx="550.885" cy="515" r="7.5" stroke-width="0.5" stroke="rgb(0,0,0)" fill="rgb(0,255,0)"/>
  <circle cx="550.885" cy="515" r="4.503" stroke-width="0.5" stroke="rgb(0,0,0)" fill="rgb(0,125,0)"/>
   </g>
   <g id="cell139">
  <circle cx="550.885" cy="530" r="7.5" stroke-width="0.5" stroke="rgb(0,0,0)" fill="rgb(0,255,0)"/>
  <circle cx="550.885" cy="530" r="4.503" stroke-width="0.5" stroke="rgb(0,0,0)" fill="rgb(0,125,0)"/>
   </g>
   <g id="cell140">
  <circle cx="550.885" cy="545" r="7.5" stroke-width="0.5" stroke="rgb(0,0,0)" fill="rgb(0,255,0)"/>
  <circle cx="550.885" cy="545" r="4.503" stroke-width="0.5" stroke="rgb(0,0,0)" fill="rgb(0,125,0)"/>
   </g>
   <g id="cell141">
  <circle cx="550.885" cy="560" r="7.5" stroke-width="0.5" stroke="rgb(0,0,0)" fill="rgb(0,255,0)"/>
  <circle cx="550.885" cy="560" r="4.503" stroke-width="0.5" stroke="rgb(0,0,0)" fill="rgb(0,125,0)"/>
   </g>
   <g id="cell142">
  <circle cx="550.885" cy="575" r="7.5" stroke-width="0.5" stroke="rgb(0,0,0)" fill="rgb(0,255,0)"/>
  <circle cx="550.885" cy="575" r="4.503" stroke-width="0.5" stroke="rgb(0,0,0)" fill="rgb(0,125,0)"/>
   </g>
   <g id="cell143">
  <circle cx="550.885" cy="590" r="7.5" stroke-width="0.5" stroke="rgb(0,0,0)" fill="rgb(0,255,0)"/>
  <circle cx="550.885" cy="590" r="4.503" stroke-width="0.5" stroke="rgb(0,0,0)" fill="rgb(0,125,0)"/>
   </g>
   <g id="cell144">
  <circle cx="563.875" cy="417.5" r="7.5" stroke-width="0.5" stroke="rgb(0,0,0)" fill="rgb(0,255,0)"/>
  <circle cx="563.875" cy="417.5" r="4.503" stroke-width="0.5" stroke="rgb(0,0,0)" fill="rgb(0,125,0)"/>
   </g>
   <g id="cell145">
  <circle cx="563.875" cy="432.5" r="7.5" stroke-width="0.5" stroke="rgb(0,0,0)" fill="rgb(0,255,0)"/>
  <circle cx="563.875" cy="432.5" r="4.503" stroke-width="0.5" stroke="rgb(0,0,0)" fill="rgb(0,125,0)"/>
   </g>
   <g id="cell146">
  <circle cx="563.875" cy="447.5" r="7.5" stroke-width="0.5" stroke="rgb(0,0,0)" fill="rgb(0,255,0)"/>
  <circle cx="563.875" cy="447.5" r="4.503" stroke-width="0.5" stroke="rgb(0,0,0)" fill="rgb(0,125,0)"/>
   </g>
   <g id="cell147">
  <circle cx="563.875" cy="462.5" r="7.5" stroke-width="0.5" stroke="rgb(0,0,0)" fill="rgb(0,255,0)"/>
  <circle cx="563.875" cy="462.5" r="4.503" stroke-width="0.5" stroke="rgb(0,0,0)" fill="rgb(0,125,0)"/>
   </g>
   <g id="cell148">
  <circle cx="563.875" cy="477.5" r="7.5" stroke-width="0.5" stroke="rgb(0,0,0)" fill="rgb(0,255,0)"/>
  <circle cx="563.875" cy="477.5" r="4.503" stroke-width="0.5" stroke="rgb(0,0,0)" fill="rgb(0,125,0)"/>
   </g>
   <g id="cell149">
  <circle cx="563.875" cy="492.5" r="7.5" stroke-width="0.5" stroke="rgb(0,0,0)" fill="rgb(0,255,0)"/>
  <circle cx="563.875" cy="492.5" r="4.503" stroke-width="0.5" stroke="rgb(0,0,0)" fill="rgb(0,125,0)"/>
   </g>
   <g id="cell150">
  <circle cx="563.875" cy="507.5" r="7.5" stroke-width="0.5" stroke="rgb(0,0,0)" fill="rgb(0,255,0)"/>
  <circle cx="563.875" cy="507.5" r="4.503" stroke-width="0.5" stroke="rgb(0,0,0)" fill="rgb(0,125,0)"/>
   </g>
   <g id="cell151">
  <circle cx="563.875" cy="522.5" r="7.5" stroke-width="0.5" stroke="rgb(0,0,0)" fill="rgb(0,255,0)"/>
  <circle cx="563.875" cy="522.5" r="4.503" stroke-width="0.5" stroke="rgb(0,0,0)" fill="rgb(0,125,0)"/>
   </g>
   <g id="cell152">
  <circle cx="563.875" cy="537.5" r="7.5" stroke-width="0.5" stroke="rgb(0,0,0)" fill="rgb(0,255,0)"/>
  <circle cx="563.875" cy="537.5" r="4.503" stroke-width="0.5" stroke="rgb(0,0,0)" fill="rgb(0,125,0)"/>
   </g>
   <g id="cell153">
  <circle cx="563.875" cy="552.5" r="7.5" stroke-width="0.5" stroke="rgb(0,0,0)" fill="rgb(0,255,0)"/>
  <circle cx="563.875" cy="552.5" r="4.503" stroke-width="0.5" stroke="rgb(0,0,0)" fill="rgb(0,125,0)"/>
   </g>
   <g id="cell154">
  <circle cx="563.875" cy="567.5" r="7.5" stroke-width="0.5" stroke="rgb(0,0,0)" fill="rgb(0,255,0)"/>
  <circle cx="563.875" cy="567.5" r="4.503" stroke-width="0.5" stroke="rgb(0,0,0)" fill="rgb(0,125,0)"/>
   </g>
   <g id="cell155">
  <circle cx="563.875" cy="582.5" r="7.5" stroke-width="0.5" stroke="rgb(0,0,0)" fill="rgb(0,255,0)"/>
  <circle cx="563.875" cy="582.5" r="4.503" stroke-width="0.5" stroke="rgb(0,0,0)" fill="rgb(0,125,0)"/>
   </g>
   <g id="cell156">
  <circle cx="576.865" cy="440" r="7.5" stroke-width="0.5" stroke="rgb(0,0,0)" fill="rgb(0,255,0)"/>
  <circle cx="576.865" cy="440" r="4.503" stroke-width="0.5" stroke="rgb(0,0,0)" fill="rgb(0,125,0)"/>
   </g>
   <g id="cell157">
  <circle cx="576.865" cy="455" r="7.5" stroke-width="0.5" stroke="rgb(0,0,0)" fill="rgb(0,255,0)"/>
  <circle cx="576.865" cy="455" r="4.503" stroke-width="0.5" stroke="rgb(0,0,0)" fill="rgb(0,125,0)"/>
   </g>
   <g id="cell158">
  <circle cx="576.865" cy="470" r="7.5" stroke-width="0.5" stroke="rgb(0,0,0)" fill="rgb(0,255,0)"/>
  <circle cx="576.865" cy="470" r="4.503" stroke-width="0.5" stroke="rgb(0,0,0)" fill="rgb(0,125,0)"/>
   </g>
   <g id="cell159">
  <circle cx="576.865" cy="485" r="7.5" stroke-width="0.5" stroke="rgb(0,0,0)" fill="rgb(0,255,0)"/>
  <circle cx="576.865" cy="485" r="4.503" stroke-width="0.5" stroke="rgb(0,0,0)" fill="rgb(0,125,0)"/>
   </g>
   <g id="cell160">
  <circle cx="576.865" cy="500" r="7.5" stroke-width="0.5" stroke="rgb(0,0,0)" fill="rgb(0,255,0)"/>
  <circle cx="576.865" cy="500" r="4.503" stroke-width="0.5" stroke="rgb(0,0,0)" fill="rgb(0,125,0)"/>
   </g>
   <g id="cell161">
  <circle cx="576.865" cy="515" r="7.5" stroke-width="0.5" stroke="rgb(0,0,0)" fill="rgb(0,255,0)"/>
  <circle cx="576.865" cy="515" r="4.503" stroke-width="0.5" stroke="rgb(0,0,0)" fill="rgb(0,125,0)"/>
   </g>
   <g id="cell162">
  <circle cx="576.865" cy="530" r="7.5" stroke-width="0.5" stroke="rgb(0,0,0)" fill="rgb(0,255,0)"/>
  <circle cx="576.865" cy="530" r="4.503" stroke-width="0.5" stroke="rgb(0,0,0)" fill="rgb(0,125,0)"/>
   </g>
   <g id="cell163">
  <circle cx="576.865" cy="545" r="7.5" stroke-width="0.5" stroke="rgb(0,0,0)" fill="rgb(0,255,0)"/>
  <circle cx="576.865" cy="545" r="4.503" stroke-width="0.5" stroke="rgb(0,0,0)" fill="rgb(0,125,0)"/>
   </g>
   <g id="cell164">
  <circle cx="576.865" cy="560" r="7.5" stroke-width="0.5" stroke="rgb(0,0,0)" fill="rgb(0,255,0)"/>
  <circle cx="576.865" cy="560" r="4.503" stroke-width="0.5" stroke="rgb(0,0,0)" fill="rgb(0,125,0)"/>
   </g>
   <g id="cell165">
  <circle cx="589.856" cy="447.5" r="7.5" stroke-width="0.5" stroke="rgb(0,0,0)" fill="rgb(0,255,0)"/>
  <circle cx="589.856" cy="447.5" r="4.503" stroke-width="0.5" stroke="rgb(0,0,0)" fill="rgb(0,125,0)"/>
   </g>
   <g id="cell166">
  <circle cx="589.856" cy="462.5" r="7.5" stroke-width="0.5" stroke="rgb(0,0,0)" fill="rgb(0,255,0)"/>
  <circle cx="589.856" cy="462.5" r="4.503" stroke-width="0.5" stroke="rgb(0,0,0)" fill="rgb(0,125,0)"/>
   </g>
   <g id="cell167">
  <circle cx="589.856" cy="477.5" r="7.5" stroke-width="0.5" stroke="rgb(0,0,0)" fill="rgb(0,255,0)"/>
  <circle cx="589.856" cy="477.5" r="4.503" stroke-width="0.5" stroke="rgb(0,0,0)" fill="rgb(0,125,0)"/>
   </g>
   <g id="cell168">
  <circle cx="589.856" cy="492.5" r="7.5" stroke-width="0.5" stroke="rgb(0,0,0)" fill="rgb(0,255,0)"/>
  <circle cx="589.856" cy="492.5" r="4.503" stroke-width="0.5" stroke="rgb(0,0,0)" fill="rgb(0,125,0)"/>
   </g>
   <g id="cell169">
  <circle cx="589.856" cy="507.5" r="7.5" stroke-width="0.5" stroke="rgb(0,0,0)" fill="rgb(0,255,0)"/>
  <circle cx="589.856" cy="507.5" r="4.503" stroke-width="0.5" stroke="rgb(0,0,0)" fill="rgb(0,125,0)"/>
   </g>
   <g id="cell170">
  <circle cx="589.856" cy="522.5" r="7.5" stroke-width="0.5" stroke="rgb(0,0,0)" fill="rgb(0,255,0)"/>
  <circle cx="589.856" cy="522.5" r="4.503" stroke-width="0.5" stroke="rgb(0,0,0)" fill="rgb(0,125,0)"/>
   </g>
   <g id="cell171">
  <circle cx="589.856" cy="537.5" r="7.5" stroke-width="0.5" stroke="rgb(0,0,0)" fill="rgb(0,255,0)"/>
  <circle cx="589.856" cy="537.5" r="4.503" stroke-width="0.5" stroke="rgb(0,0,0)" fill="rgb(0,125,0)"/>
   </g>
   <g id="cell172">
  <circle cx="589.856" cy="552.5" r="7.5" stroke-width="0.5" stroke="rgb(0,0,0)" fill="rgb(0,255,0)"/>
  <circle cx="589.856" cy="552.5" r="4.503" stroke-width="0.5" stroke="rgb(0,0,0)" fill="rgb(0,125,0)"/>
   </g>
   <g id="cell173">
  <circle cx="602.846" cy="485" r="7.5" stroke-width="0.5" stroke="rgb(0,0,0)" fill="rgb(0,255,0)"/>
  <circle cx="602.846" cy="485" r="4.503" stroke-width="0.5" stroke="rgb(0,0,0)" fill="rgb(0,125,0)"/>
   </g>
   <g id="cell174">
  <circle cx="602.846" cy="500" r="7.5" stroke-width="0.5" stroke="rgb(0,0,0)" fill="rgb(0,255,0)"/>
  <circle cx="602.846" cy="500" r="4.503" stroke-width="0.5" stroke="rgb(0,0,0)" fill="rgb(0,125,0)"/>
   </g>
   <g id="cell175">
  <circle cx="602.846" cy="515" r="7.5" stroke-width="0.5" stroke="rgb(0,0,0)" fill="rgb(0,255,0)"/>
  <circle cx="602.846" cy="515" r="4.503" stroke-width="0.5" stroke="rgb(0,0,0)" fill="rgb(0,125,0)"/>
   </g>
  </g>
 </g>
  <rect x="775" y="1035" width="200" height="10" stroke-width="2" stroke="rgb(255,255,255)" fill="rgb(0,0,0)"/>
  <text x="781.25" y="1028.75"
   font-family="Arial" font-size="25" fill="black" >
   200 &#956;m
  </text>
  <text x="25" y="1045"
   font-family="Arial" font-size="18.75" fill="black" >
   0 days, 0 hours, 0 minutes, and 0.0939 seconds
  </text>
  <rect x="0" y="70" width="1000" height="1000" stroke-width="2" stroke="rgb(0,0,0)" fill="none"/>
</svg>
